<svg xmlns="http://www.w3.org/2000/svg">

<symbol id="triangle-team">
<path d="M4 7L0.102887 0.249999L7.89711 0.25L4 7Z"/>
</symbol>

<symbol id="bluetooth">
    <g clip-path="url(#clip0_2_138)">
    <path d="M22.2054 21.5212L17.1636 16L22.2054 10.4794C22.3637 10.3056 22.4445 10.0739 22.4276 9.83904C22.4107 9.60391 22.2984 9.38594 22.1163 9.23646L15.9874 4.19594C15.7305 3.98458 15.3753 3.94019 15.0746 4.08255C14.7739 4.2243 14.5823 4.52674 14.5823 4.85927V13.1736L11.0639 9.32046C10.7443 8.97021 10.2004 8.94555 9.85017 9.26548C9.49992 9.5854 9.47526 10.1287 9.79518 10.4792L14.5823 15.7217V16.2784L9.79523 21.5212C9.47503 21.8712 9.49968 22.4148 9.85022 22.7349C10.2007 23.0551 10.7441 23.0305 11.064 22.6797L14.5821 18.827V27.1408C14.5821 27.473 14.774 27.7758 15.0744 27.9178C15.1913 27.9728 15.3167 28.0001 15.4413 28.0001C15.6369 28.0001 15.8305 27.9336 15.9874 27.8047L22.1163 22.7641C22.2984 22.6144 22.4107 22.3964 22.4276 22.1615C22.4445 21.9267 22.3643 21.695 22.2054 21.5212ZM16.3007 6.6784L20.326 9.98857L16.3007 14.3968V6.6784ZM16.3007 25.3217V17.6036L20.326 22.0115L16.3007 25.3217Z"/>
    </g>
</symbol>

<symbol id="route">
<g clip-path="url(#clip0_2_128)">
<path d="M9.25 8.5C6.355 8.5 4 10.855 4 13.75C4 16.444 8.212 21.2155 8.692 21.751C8.8345 21.9085 9.037 22 9.25 22C9.463 22 9.6655 21.9085 9.808 21.751C10.288 21.2155 14.5 16.444 14.5 13.75C14.5 10.855 12.145 8.5 9.25 8.5ZM9.25 20.1055C7.612 18.163 5.5 15.181 5.5 13.75C5.5 11.683 7.183 10 9.25 10C11.317 10 13 11.683 13 13.75C13 15.1795 10.888 18.163 9.25 20.1055Z"/>
<path d="M9.25 11.5C8.0095 11.5 7 12.5095 7 13.75C7 14.9905 8.0095 16 9.25 16C10.4905 16 11.5 14.9905 11.5 13.75C11.5 12.5095 10.4905 11.5 9.25 11.5ZM9.25 14.5C8.836 14.5 8.5 14.164 8.5 13.75C8.5 13.336 8.836 13 9.25 13C9.664 13 10 13.336 10 13.75C10 14.164 9.664 14.5 9.25 14.5Z"/>
<path d="M27.25 4H21.25C20.836 4 20.5 4.336 20.5 4.75V9.25V12.25C20.5 12.664 20.836 13 21.25 13C21.664 13 22 12.664 22 12.25V10H27.25C27.664 10 28 9.664 28 9.25V4.75C28 4.336 27.664 4 27.25 4ZM26.5 8.5H22V5.5H26.5V8.5Z"/>
<path d="M25 20.5H17.5C16.6735 20.5 16 19.8265 16 19C16 18.1735 16.6735 17.5 17.5 17.5H19.138C19.4485 18.3715 20.2735 19 21.25 19C22.4905 19 23.5 17.9905 23.5 16.75C23.5 15.5095 22.4905 14.5 21.25 14.5C20.2735 14.5 19.4485 15.1285 19.138 16H17.5C15.8455 16 14.5 17.3455 14.5 19C14.5 20.6545 15.8455 22 17.5 22H25C25.8265 22 26.5 22.6735 26.5 23.5C26.5 24.3265 25.8265 25 25 25H11.362C11.0515 24.1285 10.2265 23.5 9.25 23.5C8.0095 23.5 7 24.5095 7 25.75C7 26.9905 8.0095 28 9.25 28C10.2265 28 11.0515 27.3715 11.362 26.5H25C26.6545 26.5 28 25.1545 28 23.5C28 21.8455 26.6545 20.5 25 20.5ZM21.25 16C21.664 16 22 16.336 22 16.75C22 17.164 21.664 17.5 21.25 17.5C20.836 17.5 20.5 17.164 20.5 16.75C20.5 16.336 20.836 16 21.25 16ZM9.25 26.5C8.836 26.5 8.5 26.164 8.5 25.75C8.5 25.336 8.836 25 9.25 25C9.664 25 10 25.336 10 25.75C10 26.164 9.664 26.5 9.25 26.5Z"/>
</g>
</symbol>

<symbol id="charge">
<g clip-path="url(#clip0_2_164)">
<path d="M26.08 11.2274V9.1261C26.08 8.73627 25.7639 8.42022 25.3741 8.42022H22.096C21.7062 8.42022 21.3901 8.73627 21.3901 9.1261V11.2274C21.0301 11.2596 20.7478 11.5617 20.7478 11.9301V15.7258C20.7478 16.5907 21.4515 17.2943 22.3164 17.2943H23.0292V24.8141C23.0292 25.7924 22.2331 26.5882 21.2546 26.5882H13.5383C12.5601 26.5882 11.7642 25.7924 11.7642 24.8141V23.2941H13.2654C13.6552 23.2941 13.9713 22.9781 13.9713 22.5882V20.298H14.7211C15.8887 20.298 16.8387 19.348 16.8387 18.1804V11.7782C16.8387 10.8261 16.207 10.0189 15.3407 9.75326V7.33269C15.3407 6.94286 15.0247 6.62681 14.6348 6.62681H13.6471V4.70587C13.6471 4.31603 13.331 3.99998 12.9412 3.99998C12.5513 3.99998 12.2353 4.31603 12.2353 4.70587V6.62681H9.88141V4.70587C9.88141 4.31603 9.56536 3.99998 9.17552 3.99998C8.78569 3.99998 8.46964 4.31603 8.46964 4.70587V6.62681H7.48188C7.09204 6.62681 6.77599 6.94286 6.77599 7.33269V9.75326C5.90969 10.0189 5.27797 10.826 5.27797 11.7782V18.1804C5.27797 19.348 6.22795 20.298 7.39562 20.298H8.1454V22.5882C8.1454 22.9781 8.46145 23.2941 8.85129 23.2941H10.3525V24.8141C10.3525 26.5708 11.7816 28 13.5383 28H21.2546C23.0115 28 24.4409 26.5708 24.4409 24.8141V17.2943H25.1535C26.0184 17.2943 26.7221 16.5907 26.7221 15.7258V11.9301C26.7221 11.5618 26.4399 11.2597 26.08 11.2274ZM13.9289 8.03857V9.66055H8.18776V8.03857H13.9289ZM6.68969 18.1804V11.7782C6.68969 11.389 7.00635 11.0723 7.39557 11.0723H14.7211C15.1103 11.0723 15.427 11.389 15.427 11.7782V18.1804C15.427 18.5696 15.1103 18.8862 14.7211 18.8862C14.4253 18.8862 7.73246 18.8862 7.39557 18.8862C7.00635 18.8862 6.68969 18.5696 6.68969 18.1804ZM9.55717 20.298H12.5595V21.8823H9.55717V20.298ZM24.6682 9.83198V11.2242H22.8019V9.83198H24.6682ZM25.3103 15.7258C25.3103 15.8122 25.2399 15.8825 25.1535 15.8825C25.0671 15.8825 23.1153 15.8825 22.3164 15.8825C22.2299 15.8825 22.1596 15.8122 22.1596 15.7258V12.636H25.3103V15.7258Z"/>
<path d="M10.1638 15.6852H10.8799L10.5678 16.409C10.4134 16.767 10.5785 17.1823 10.9364 17.3367C11.295 17.4911 11.7099 17.3256 11.8641 16.968L12.6011 15.2588C12.802 14.7928 12.4593 14.2735 11.9529 14.2735H11.2368L11.5489 13.5497C11.7033 13.1917 11.5382 12.7763 11.1802 12.622C10.8222 12.4677 10.4069 12.6328 10.2526 12.9907L9.51558 14.6998C9.31464 15.1657 9.65741 15.6852 10.1638 15.6852Z"/>
</g>
</symbol>

<symbol id="weight">
<g clip-path="url(#clip0_2_90)">
<path d="M24.3373 10.3997H18.9742C19.5392 9.7226 19.88 8.85193 19.88 7.90308C19.88 5.75085 18.1292 4 15.9771 4C13.8249 4 12.074 5.75085 12.074 7.90308C12.074 8.85193 12.4148 9.7226 12.9799 10.3997H7.6167L4.28125 28H27.6728L24.3373 10.3997ZM15.9771 5.40625C17.3537 5.40625 18.4738 6.52631 18.4738 7.90308C18.4738 9.27966 17.3537 10.3997 15.9771 10.3997C14.6003 10.3997 13.4803 9.27966 13.4803 7.90308C13.4803 6.52631 14.6003 5.40625 15.9771 5.40625ZM8.78143 11.806H23.1726L25.975 26.5938H5.979L8.78143 11.806Z"/>
<path d="M16.0055 16.4026H14.4094L12.1779 18.631V16.4026H11.0309V22.0225H12.1779V20.1017L12.7563 19.5378L14.5044 22.0225H15.985L13.5753 18.7497L16.0055 16.4026Z"/>
<path d="M18.2747 20.0007H19.7903V20.617C19.6685 20.7058 19.5026 20.793 19.2955 20.8766C19.0436 20.9786 18.7817 21.0303 18.5177 21.0303C18.2154 21.0303 17.9261 20.9627 17.6575 20.8294C17.3986 20.701 17.2063 20.5092 17.0701 20.2426C16.9294 19.9677 16.8582 19.6152 16.8582 19.195C16.8582 18.8546 16.9186 18.5355 17.0371 18.2474C17.1041 18.0872 17.1995 17.938 17.3207 17.8034C17.4363 17.6752 17.5936 17.569 17.7878 17.4879C17.9858 17.4053 18.2277 17.3634 18.5071 17.3634C18.7347 17.3634 18.9432 17.4028 19.1269 17.4804C19.3016 17.5542 19.4356 17.6511 19.5251 17.7681C19.6222 17.8948 19.7062 18.0775 19.7751 18.3113L19.8395 18.5302L20.8955 18.2405L20.8386 18.0191C20.7417 17.6419 20.5959 17.329 20.4052 17.0886C20.2094 16.8419 19.939 16.6482 19.601 16.5127C19.2736 16.3814 18.9044 16.3149 18.5036 16.3149C17.9539 16.3149 17.4592 16.4307 17.0331 16.6588C16.5969 16.8925 16.2585 17.2534 16.028 17.7314C15.8037 18.1962 15.6902 18.7026 15.6902 19.2373C15.6902 19.7786 15.8052 20.277 16.0324 20.7184C16.2648 21.1703 16.6132 21.5203 17.0684 21.7587C17.5139 21.9921 18.0145 22.1106 18.5563 22.1106C18.9579 22.1106 19.3547 22.0375 19.7357 21.8932C20.1131 21.7506 20.4832 21.5356 20.8356 21.2546L20.9233 21.1848V18.9271L18.2747 18.9313V20.0007Z"/>
</g>
</symbol>

<symbol id="certified">
<path d="M28 5.78125H4V23.2266H18.7643V26.2543L21.3884 24.9725L24.0125 26.2543V23.2266H28V5.78125ZM21.3884 20.413C20.0701 20.413 18.9978 19.3406 18.9978 18.0224C18.9978 16.7042 20.0701 15.6318 21.3884 15.6318C22.7066 15.6318 23.7791 16.7042 23.7791 18.0224C23.7791 19.3406 22.7066 20.413 21.3884 20.413ZM21.3884 23.4075L20.1706 24.0023V21.6177C20.5531 21.7477 20.9623 21.8193 21.3884 21.8193C21.8143 21.8193 22.2236 21.7477 22.6063 21.6177V24.0023L21.3884 23.4075ZM26.5938 21.8204H24.0125V20.7626C24.7343 20.071 25.1853 19.0987 25.1853 18.0224C25.1853 15.9288 23.4821 14.2255 21.3884 14.2255C19.2948 14.2255 17.5916 15.9288 17.5916 18.0224C17.5916 19.0987 18.0424 20.0712 18.7643 20.7626V21.8204H5.40625V7.1875H26.5938V21.8204Z"/>
<path d="M6.81415 11.4106H25.1859V12.8169H6.81415V11.4106Z"/>
<path d="M8.92517 8.59595H23.0748V10.0022H8.92517V8.59595Z"/>
<path d="M6.81415 19.0057H13.6544V20.4119H6.81415V19.0057Z"/>
<path d="M6.81415 16.1908H13.6544V17.597H6.81415V16.1908Z"/>
</symbol>

<symbol id="arrow-button">
    <path d="M14 28L1.91422 15.9142C1.13317 15.1332 1.13317 13.8668 1.91421 13.0858L14 1" stroke-width="2" stroke-linecap="round"/>
</symbol>

<symbol id="gear">
    <g clip-path="url(#clip0_24_1166)">
        <path d="M21 10.1111C14.9956 10.1111 10.1111 14.9955 10.1111 21C10.1111 27.0044 14.9956 31.8889 21 31.8889C27.0044 31.8889 31.8889 27.0044 31.8889 21C31.8889 14.9955 27.0044 10.1111 21 10.1111ZM21 30.3333C15.8534 30.3333 11.6667 26.1465 11.6667 21C11.6667 15.8534 15.8534 11.6666 21 11.6666C26.1466 11.6666 30.3333 15.8534 30.3333 21C30.3333 26.1465 26.1466 30.3333 21 30.3333Z"/>
        <path d="M39.8378 16.3333H38.2682C37.8677 14.8462 37.2789 13.4229 36.5104 12.089L37.6196 10.9799C38.0279 10.5716 38.2527 10.0279 38.2527 9.45078C38.2527 8.87289 38.0279 8.33 37.6196 7.92089L34.0783 4.37967C33.2617 3.56378 31.8376 3.56222 31.0193 4.37967L29.9102 5.48878C28.5756 4.72111 27.153 4.13233 25.6667 3.73178V2.16222C25.6667 0.969889 24.6968 0 23.5044 0H18.4956C17.3032 0 16.3333 0.969889 16.3333 2.16222V3.73178C14.847 4.13233 13.4244 4.72111 12.089 5.48956L10.9799 4.38044C10.1624 3.56222 8.73755 3.56378 7.92089 4.38044L4.37967 7.92167C3.97133 8.33 3.74656 8.87367 3.74656 9.45156C3.74656 10.0287 3.97133 10.5716 4.37967 10.9807L5.48878 12.0898C4.72111 13.4229 4.13156 14.8462 3.73178 16.3333H2.16222C0.969889 16.3333 0 17.3032 0 18.4956V23.5037C0 24.6968 0.969889 25.6667 2.16222 25.6667H3.73178C4.13233 27.153 4.72111 28.5756 5.48956 29.911L4.38044 31.0201C3.97211 31.4284 3.74733 31.9721 3.74733 32.5492C3.74733 33.1271 3.97211 33.67 4.38044 34.0791L7.92167 37.6203C8.73833 38.4378 10.1632 38.4386 10.9807 37.6203L12.0898 36.5112C13.4252 37.2789 14.8478 37.8684 16.3341 38.269V39.8386C16.3341 41.0309 17.304 42.0008 18.4963 42.0008H23.5044C24.6968 42.0008 25.6667 41.0309 25.6667 39.8386V38.269C27.153 37.8684 28.5756 37.2797 29.911 36.5112L31.0201 37.6203C31.8383 38.4386 33.2617 38.437 34.0791 37.6203L37.6203 34.0791C38.0287 33.6708 38.2534 33.1271 38.2534 32.5492C38.2534 31.9721 38.0287 31.4292 37.6203 31.0201L36.5112 29.911C37.2789 28.5756 37.8684 27.153 38.269 25.6667H39.8386C41.0309 25.6667 42.0008 24.6968 42.0008 23.5044V18.4956C42 17.3032 41.0301 16.3333 39.8378 16.3333ZM40.4444 23.5044C40.4444 23.8389 40.1722 24.1111 39.8378 24.1111H37.044L36.904 24.7123C36.4988 26.4522 35.8159 28.1034 34.8717 29.6209L34.545 30.1451L36.5198 32.1199C36.757 32.3571 36.757 32.7421 36.5198 32.9786L32.9786 36.5198C32.7421 36.7562 32.3571 36.7578 32.1199 36.5198L30.1451 34.545L29.6209 34.8717C28.1042 35.8159 26.453 36.4996 24.7123 36.904L24.1111 37.044V39.8378C24.1111 40.1722 23.8389 40.4444 23.5044 40.4444H18.4956C18.1611 40.4444 17.8889 40.1722 17.8889 39.8378V37.044L17.2877 36.904C15.5478 36.4988 13.8966 35.8159 12.3791 34.8717L11.8549 34.545L9.88011 36.5198C9.64211 36.7578 9.25711 36.7562 9.02144 36.5198L5.48022 32.9786C5.243 32.7413 5.243 32.3563 5.48022 32.1199L7.455 30.1451L7.12833 29.6209C6.18411 28.1042 5.50044 26.453 5.096 24.7123L4.956 24.1111H2.16222C1.82778 24.1111 1.55556 23.8389 1.55556 23.5044V18.4956C1.55556 18.1611 1.82778 17.8889 2.16222 17.8889H4.956L5.096 17.2877C5.50122 15.547 6.18411 13.8958 7.12833 12.3791L7.455 11.8549L5.48022 9.88011C5.243 9.64289 5.243 9.25789 5.48022 9.02144L9.02144 5.48022C9.25789 5.24378 9.64289 5.24222 9.88011 5.48022L11.8549 7.455L12.3791 7.12833C13.8958 6.18411 15.547 5.50044 17.2877 5.096L17.8889 4.956V2.16222C17.8889 1.82778 18.1611 1.55556 18.4956 1.55556H23.5037C23.8389 1.55556 24.1111 1.82778 24.1111 2.16222V4.956L24.7123 5.096C26.4522 5.50122 28.1034 6.18411 29.6209 7.12833L30.1451 7.455L32.1199 5.48022C32.3579 5.24222 32.7429 5.24378 32.9786 5.48022L36.5198 9.02144C36.757 9.25867 36.757 9.64367 36.5198 9.88011L34.545 11.8549L34.8717 12.3791C35.8159 13.895 36.4996 15.5462 36.904 17.2877L37.044 17.8889H39.8378C40.1722 17.8889 40.4444 18.1611 40.4444 18.4956V23.5044Z"/>
        <path d="M21 13.2222C16.7113 13.2222 13.2222 16.7113 13.2222 20.9999C13.2222 25.2886 16.7113 28.7777 21 28.7777C25.2887 28.7777 28.7778 25.2886 28.7778 20.9999C28.7778 16.7113 25.2887 13.2222 21 13.2222ZM21 27.2222C17.5692 27.2222 14.7778 24.4307 14.7778 20.9999C14.7778 17.5692 17.5692 14.7777 21 14.7777C24.4308 14.7777 27.2222 17.5692 27.2222 20.9999C27.2222 24.4307 24.4308 27.2222 21 27.2222Z"/>
</g>
</symbol>

<symbol id="cross">
    <path d="M13.5556 10L19.3333 4.22222C20.2222 3.33333 20.2222 2 19.3333 1.22222L18.8889 0.777778C18 -0.111111 16.6667 -0.111111 15.8889 0.777778L10 6.44445L4.22222 0.666667C3.33333 -0.222222 2 -0.222222 1.11111 0.666667L0.666667 1.11111C-0.222222 2 -0.222222 3.33333 0.666667 4.11111L6.44445 10L0.666667 15.7778C-0.222222 16.6667 -0.222222 18 0.666667 18.7778L1.11111 19.3333C2 20.2222 3.33333 20.2222 4.11111 19.3333L10 13.5556L15.7778 19.3333C16.6667 20.2222 18 20.2222 18.7778 19.3333L19.2222 18.8889C20.1111 18 20.1111 16.6667 19.2222 15.8889L13.5556 10Z"/>
</symbol>

<symbol id="phone">
    <path d="M13.7455 13.0923C13.4909 13.5935 12.9818 13.8441 12.4727 14.0947C11.8364 14.4706 11.3273 14.5959 10.6909 14.5959C9.8 14.5959 8.90909 14.22 8.14545 13.9694C7.50909 13.7188 7 13.4682 6.36364 13.2176C4.58182 12.09 2.54545 10.0853 1.52727 8.45643C1.14545 7.82996 0.890909 7.32878 0.636364 6.70231C0.381818 5.82525 0 5.07349 0 4.07113C0 3.44466 0.127273 2.81819 0.509091 2.19172C0.763636 1.69054 1.01818 1.18936 1.52727 0.938771C1.90909 0.938771 2.54545 0.813477 2.92727 0.813477C3.05455 0.813477 3.05455 0.813477 3.18182 0.813477C3.43636 0.938771 3.56364 1.31465 3.69091 1.56524C3.94545 2.19172 4.32727 2.69289 4.58182 3.31936C4.83636 3.56995 5.09091 3.82054 5.09091 4.07113C5.09091 4.6976 3.30909 5.57466 3.30909 6.07584C3.30909 6.32643 3.56364 6.70231 3.69091 6.9529C4.70909 8.70702 5.98182 9.95997 7.76364 10.9623C8.01818 11.0876 8.4 11.3382 8.65455 11.3382C9.16364 11.3382 10.0545 9.58408 10.6909 9.58408C10.9455 9.58408 11.2 9.83467 11.4545 10.0853C11.9636 10.4611 12.6 10.7117 13.1091 11.0876C13.3636 11.2129 13.7455 11.3382 13.8727 11.5888C13.8727 11.7141 13.8727 11.7141 13.8727 11.8394C14 12.09 13.8727 12.7164 13.7455 13.0923Z"/>
</symbol>

<symbol id="triangle">
    <path d="M12.5 1L1 35L35.5 24.5L12.5 1Z"/>
</symbol>

<symbol id="vk">
    <path d="M12 0C5.37423 0 0 5.37423 0 12C0 18.6258 5.37423 24 12 24C18.6258 24 24 18.6258 24 12C24 5.37423 18.6258 0 12 0ZM18.0859 13.3006C18.6503 13.8405 19.2393 14.3558 19.7301 14.9693C19.9509 15.2393 20.1718 15.5092 20.319 15.8282C20.5399 16.2699 20.3436 16.7607 19.9509 16.7853H17.4969C16.8589 16.8344 16.3681 16.589 15.9264 16.1472C15.5828 15.8037 15.2638 15.4356 14.9448 15.0675C14.8221 14.9202 14.6748 14.773 14.5031 14.6748C14.1595 14.454 13.865 14.5276 13.6933 14.8712C13.4969 15.2393 13.4479 15.6319 13.4233 16.0245C13.3988 16.6135 13.227 16.7607 12.638 16.7853C11.3865 16.8344 10.2086 16.6626 9.12883 16.0245C8.17178 15.4601 7.41104 14.6994 6.77301 13.816C5.49693 12.0982 4.53988 10.2086 3.65644 8.26994C3.46012 7.82822 3.60736 7.60736 4.09816 7.58282C4.90798 7.55828 5.69325 7.55828 6.50307 7.58282C6.82209 7.58282 7.04294 7.77914 7.16564 8.07362C7.60736 9.12883 8.1227 10.1595 8.78528 11.092C8.95705 11.3374 9.15337 11.5828 9.39877 11.7791C9.69325 11.9755 9.88957 11.9018 10.0368 11.5828C10.1104 11.3865 10.1595 11.1656 10.184 10.9448C10.2577 10.2086 10.2577 9.47239 10.135 8.7362C10.0613 8.2454 9.81595 7.95092 9.34969 7.85276C9.10429 7.80368 9.15337 7.73006 9.25153 7.58282C9.44785 7.36196 9.64417 7.21472 10.0123 7.21472H12.7853C13.227 7.31288 13.3252 7.48466 13.3742 7.92638V11.0184C13.3742 11.1902 13.4479 11.7055 13.7669 11.8037C14.0123 11.8773 14.184 11.681 14.3313 11.5337C14.9939 10.8221 15.4601 9.98773 15.9018 9.12883C16.0982 8.7362 16.2454 8.34356 16.4172 7.95092C16.5399 7.65644 16.7117 7.5092 17.0552 7.5092H19.7301C19.8037 7.5092 19.8773 7.5092 19.9755 7.53374C20.4172 7.60736 20.5399 7.80368 20.4172 8.2454C20.1963 8.93251 19.7791 9.52147 19.362 10.0859C18.9202 10.6994 18.4294 11.2883 17.9877 11.9264C17.546 12.5153 17.5706 12.8098 18.0859 13.3006Z"/>
</symbol>

<symbol id="facebook">
    <path d="M24 12C24 5.37188 18.6281 0 12 0C5.37188 0 0 5.37188 0 12C0 18.6281 5.37188 24 12 24C12.0703 24 12.1406 24 12.2109 23.9953V14.6578H9.63281V11.6531H12.2109V9.44062C12.2109 6.87656 13.7766 5.47969 16.0641 5.47969C17.1609 5.47969 18.1031 5.55938 18.375 5.59688V8.27813H16.8C15.5578 8.27813 15.3141 8.86875 15.3141 9.73594V11.6484H18.2906L17.9016 14.6531H15.3141V23.5359C20.3297 22.0969 24 17.4797 24 12Z"/>
</symbol>

<symbol id="instagram">
    <g clip-path="url(#clip0_2_1212)">
    <g clip-path="url(#clip1_2_1212)">
        <path d="M14.2969 12C14.2969 13.2703 13.2703 14.2969 12 14.2969C10.7297 14.2969 9.70312 13.2703 9.70312 12C9.70312 10.7297 10.7297 9.70312 12 9.70312C13.2703 9.70312 14.2969 10.7297 14.2969 12Z"/>
        <path d="M17.3719 7.93593C17.2594 7.63593 17.0859 7.36405 16.8563 7.14374C16.6359 6.91405 16.3641 6.74061 16.0641 6.62811C15.8203 6.53436 15.4547 6.42186 14.7844 6.38905C14.0578 6.35624 13.8375 6.34686 12 6.34686C10.1578 6.34686 9.94219 6.35155 9.21563 6.38905C8.54531 6.42186 8.17969 6.53436 7.93594 6.62811C7.63594 6.74061 7.36406 6.91405 7.14375 7.14374C6.91406 7.36405 6.74062 7.63593 6.62812 7.93593C6.53437 8.17968 6.42187 8.5453 6.38906 9.21561C6.35625 9.94218 6.34687 10.1578 6.34687 12C6.34687 13.8375 6.35625 14.0578 6.38906 14.7844C6.42187 15.4547 6.52969 15.8203 6.62812 16.0641C6.74062 16.364 6.91406 16.6359 7.14375 16.8562C7.36406 17.0859 7.63594 17.2594 7.93594 17.3719C8.17969 17.4656 8.54531 17.5781 9.21563 17.6109C9.94219 17.6437 10.1578 17.6531 12 17.6531C13.8422 17.6531 14.0578 17.6484 14.7844 17.6109C15.4547 17.5781 15.8203 17.4703 16.0641 17.3719C16.6641 17.1422 17.1422 16.6641 17.3719 16.0641C17.4656 15.8203 17.5781 15.4547 17.6109 14.7844C17.6438 14.0578 17.6531 13.8375 17.6531 12C17.6531 10.1578 17.6484 9.94218 17.6109 9.21561C17.5781 8.5453 17.4656 8.17968 17.3719 7.93593ZM12 15.5391C10.0453 15.5391 8.46094 13.9547 8.46094 12C8.46094 10.0453 10.0453 8.46093 12 8.46093C13.9547 8.46093 15.5391 10.0453 15.5391 12C15.5391 13.9547 13.9547 15.5391 12 15.5391ZM15.6797 9.14999C15.225 9.14999 14.8547 8.77968 14.8547 8.32499C14.8547 7.8703 15.225 7.49999 15.6797 7.49999C16.1344 7.49999 16.5047 7.8703 16.5047 8.32499C16.5047 8.77968 16.1344 9.14999 15.6797 9.14999Z"/>
        <path d="M12 0C5.37188 0 0 5.37188 0 12C0 18.6281 5.37188 24 12 24C18.6281 24 24 18.6281 24 12C24 5.37188 18.6281 0 12 0ZM18.8484 14.8406C18.8156 15.5719 18.6984 16.0734 18.5297 16.5141C18.1734 17.4375 17.4422 18.1734 16.5141 18.5297C16.0781 18.6984 15.5766 18.8156 14.8406 18.8484C14.1047 18.8813 13.8703 18.8906 12 18.8906C10.1297 18.8906 9.89531 18.8813 9.15937 18.8484C8.42812 18.8156 7.92656 18.6984 7.48594 18.5297C7.02656 18.3562 6.60937 18.0844 6.26719 17.7328C5.91562 17.3906 5.64375 16.9734 5.47031 16.5141C5.30156 16.0781 5.18438 15.5766 5.15156 14.8406C5.11875 14.1047 5.10938 13.8703 5.10938 12C5.10938 10.1297 5.11875 9.89531 5.15156 9.15937C5.18438 8.42812 5.30156 7.92656 5.47031 7.48594C5.64375 7.02656 5.91562 6.60937 6.26719 6.26719C6.60937 5.91562 7.02656 5.64375 7.48594 5.47031C7.92656 5.30156 8.42344 5.18438 9.15937 5.15156C9.89531 5.11875 10.1297 5.10938 12 5.10938C13.8703 5.10938 14.1047 5.11875 14.8406 5.15156C15.5719 5.18438 16.0734 5.30156 16.5141 5.47031C16.9734 5.64375 17.3906 5.91562 17.7328 6.26719C18.0844 6.60937 18.3562 7.02656 18.5297 7.48594C18.6984 7.92656 18.8156 8.42344 18.8484 9.15937C18.8813 9.89531 18.8906 10.1297 18.8906 12C18.8906 13.8703 18.8813 14.1047 18.8484 14.8406Z"/>
    </g>
    </g>
</symbol>

<symbol id="instagram">
    <g clip-path="url(#clip0_2_1212)">
    <g clip-path="url(#clip1_2_1212)">
        <path d="M14.2969 12C14.2969 13.2703 13.2703 14.2969 12 14.2969C10.7297 14.2969 9.70312 13.2703 9.70312 12C9.70312 10.7297 10.7297 9.70312 12 9.70312C13.2703 9.70312 14.2969 10.7297 14.2969 12Z"/>
        <path d="M17.3719 7.93593C17.2594 7.63593 17.0859 7.36405 16.8563 7.14374C16.6359 6.91405 16.3641 6.74061 16.0641 6.62811C15.8203 6.53436 15.4547 6.42186 14.7844 6.38905C14.0578 6.35624 13.8375 6.34686 12 6.34686C10.1578 6.34686 9.94219 6.35155 9.21563 6.38905C8.54531 6.42186 8.17969 6.53436 7.93594 6.62811C7.63594 6.74061 7.36406 6.91405 7.14375 7.14374C6.91406 7.36405 6.74062 7.63593 6.62812 7.93593C6.53437 8.17968 6.42187 8.5453 6.38906 9.21561C6.35625 9.94218 6.34687 10.1578 6.34687 12C6.34687 13.8375 6.35625 14.0578 6.38906 14.7844C6.42187 15.4547 6.52969 15.8203 6.62812 16.0641C6.74062 16.364 6.91406 16.6359 7.14375 16.8562C7.36406 17.0859 7.63594 17.2594 7.93594 17.3719C8.17969 17.4656 8.54531 17.5781 9.21563 17.6109C9.94219 17.6437 10.1578 17.6531 12 17.6531C13.8422 17.6531 14.0578 17.6484 14.7844 17.6109C15.4547 17.5781 15.8203 17.4703 16.0641 17.3719C16.6641 17.1422 17.1422 16.6641 17.3719 16.0641C17.4656 15.8203 17.5781 15.4547 17.6109 14.7844C17.6438 14.0578 17.6531 13.8375 17.6531 12C17.6531 10.1578 17.6484 9.94218 17.6109 9.21561C17.5781 8.5453 17.4656 8.17968 17.3719 7.93593ZM12 15.5391C10.0453 15.5391 8.46094 13.9547 8.46094 12C8.46094 10.0453 10.0453 8.46093 12 8.46093C13.9547 8.46093 15.5391 10.0453 15.5391 12C15.5391 13.9547 13.9547 15.5391 12 15.5391ZM15.6797 9.14999C15.225 9.14999 14.8547 8.77968 14.8547 8.32499C14.8547 7.8703 15.225 7.49999 15.6797 7.49999C16.1344 7.49999 16.5047 7.8703 16.5047 8.32499C16.5047 8.77968 16.1344 9.14999 15.6797 9.14999Z"/>
        <path d="M12 0C5.37188 0 0 5.37188 0 12C0 18.6281 5.37188 24 12 24C18.6281 24 24 18.6281 24 12C24 5.37188 18.6281 0 12 0ZM18.8484 14.8406C18.8156 15.5719 18.6984 16.0734 18.5297 16.5141C18.1734 17.4375 17.4422 18.1734 16.5141 18.5297C16.0781 18.6984 15.5766 18.8156 14.8406 18.8484C14.1047 18.8813 13.8703 18.8906 12 18.8906C10.1297 18.8906 9.89531 18.8813 9.15937 18.8484C8.42812 18.8156 7.92656 18.6984 7.48594 18.5297C7.02656 18.3562 6.60937 18.0844 6.26719 17.7328C5.91562 17.3906 5.64375 16.9734 5.47031 16.5141C5.30156 16.0781 5.18438 15.5766 5.15156 14.8406C5.11875 14.1047 5.10938 13.8703 5.10938 12C5.10938 10.1297 5.11875 9.89531 5.15156 9.15937C5.18438 8.42812 5.30156 7.92656 5.47031 7.48594C5.64375 7.02656 5.91562 6.60937 6.26719 6.26719C6.60937 5.91562 7.02656 5.64375 7.48594 5.47031C7.92656 5.30156 8.42344 5.18438 9.15937 5.15156C9.89531 5.11875 10.1297 5.10938 12 5.10938C13.8703 5.10938 14.1047 5.11875 14.8406 5.15156C15.5719 5.18438 16.0734 5.30156 16.5141 5.47031C16.9734 5.64375 17.3906 5.91562 17.7328 6.26719C18.0844 6.60937 18.3562 7.02656 18.5297 7.48594C18.6984 7.92656 18.8156 8.42344 18.8484 9.15937C18.8813 9.89531 18.8906 10.1297 18.8906 12C18.8906 13.8703 18.8813 14.1047 18.8484 14.8406Z"/>
    </g>
    </g>
</symbol>

<symbol id="telegram">
    <path d="M12 24C18.6281 24 24 18.6281 24 12C24 5.37188 18.6281 0 12 0C5.37188 0 0 5.37188 0 12C0 18.6281 5.37188 24 12 24ZM5.48906 11.7422L17.0625 7.27969C17.6016 7.0875 18.0703 7.41094 17.8922 8.22187L15.9234 17.5031C15.7781 18.1594 15.3844 18.3234 14.8406 18.0094L11.8406 15.7969L10.3922 17.1891C10.2328 17.3484 10.0969 17.4844 9.7875 17.4844L9.99844 14.4328L15.5625 9.4125C15.8062 9.20156 15.5063 9.07969 15.1875 9.29062L8.31562 13.6172L5.35312 12.6937C4.71094 12.4875 4.69688 12.0516 5.48906 11.7422Z"/>
</symbol>
</svg>


